<?xml version="1.0" encoding="UTF-8"?>
<svg width="21px" height="17px" viewBox="0 0 21 17" version="1.1" xmlns="http://www.w3.org/2000/svg" xmlns:xlink="http://www.w3.org/1999/xlink">
    <!-- Generator: Sketch 50.2 (55047) - http://www.bohemiancoding.com/sketch -->
    <title>courses</title>
    <desc>Created with Sketch.</desc>
    <defs></defs>
    <g id="Page-1" stroke="none" stroke-width="1" fill="none" fill-rule="evenodd">
        <g id="courses" fill="#000000" fill-rule="nonzero">
            <path d="M18.85,1.8 C18.85,1.71421356 18.6857864,1.55 18.6,1.55 L1.8,1.55 C1.6595523,1.55 1.55,1.66737747 1.55,1.8 L1.55,14.5 C1.55,14.5857864 1.71421356,14.75 1.8,14.75 L18.5,14.75 C18.5881188,14.75 18.7806174,14.5918007 18.85,14.4705095 L18.85,1.8 Z M18.5,16.25 L1.8,16.25 C0.885786438,16.25 0.05,15.4142136 0.05,14.5 L0.05,1.8 C0.05,0.861193962 0.807114365,0.05 1.8,0.05 L18.6,0.05 C19.5142136,0.05 20.35,0.885786438 20.35,1.8 L20.35,14.6 L20.3276069,14.7819017 C20.1379959,15.5403455 19.3269622,16.25 18.5,16.25 Z" id="Shape"></path>
            <path d="M15.95,4.35 L14.35,4.35 L14.35,6.05 L15.95,6.05 L15.95,4.35 Z M17.2053301,7.25533009 C17.0164515,7.44420868 16.7519732,7.55 16.5,7.55 L13.8,7.55 C13.2857864,7.55 12.85,7.11421356 12.85,6.6 L12.85,3.8 C12.85,3.13981624 13.2847244,2.85 13.8,2.85 L16.5,2.85 C17.0152756,2.85 17.45,3.13981624 17.45,3.8 L17.45,6.37961577 C17.5274553,6.6979644 17.4373952,7.02326496 17.2053301,7.25533009 Z" id="Shape"></path>
            <path d="M16.8,9.25 C17.2142136,9.25 17.55,9.58578644 17.55,10 C17.55,10.4142136 17.2142136,10.75 16.8,10.75 L12.5,10.75 C12.0857864,10.75 11.75,10.4142136 11.75,10 C11.75,9.58578644 12.0857864,9.25 12.5,9.25 L16.8,9.25 Z" id="Shape"></path>
            <path d="M16.8,12.15 C17.2142136,12.15 17.55,12.4857864 17.55,12.9 C17.55,13.3142136 17.2142136,13.65 16.8,13.65 L12.5,13.65 C12.0857864,13.65 11.75,13.3142136 11.75,12.9 C11.75,12.4857864 12.0857864,12.15 12.5,12.15 L16.8,12.15 Z" id="Shape"></path>
            <path d="M9.9,2.8 L9,2.8 C8.8,2.8 8.5,3 8.5,3.3 L8.5,4.1 C8.5,4.4 8.7,4.6 9,4.6 L9.8,4.6 C10.1,4.6 10.3,4.4 10.3,4.1 L10.3,3.3 C10.4,3.2 10.1,2.8 9.9,2.8 Z" id="Shape"></path>
            <path d="M9.9,5.8 L9,5.8 C8.8,5.8 8.5,6 8.5,6.3 L8.5,7.1 C8.5,7.4 8.7,7.6 9,7.6 L9.8,7.6 C10.1,7.6 10.3,7.4 10.3,7.1 L10.3,6.3 C10.4,6.2 10.1,5.8 9.9,5.8 Z" id="Shape"></path>
            <path d="M9.9,8.9 L9,8.9 C8.8,8.9 8.5,9 8.5,9.4 L8.5,10.2 C8.5,10.5 8.7,10.7 9,10.7 L9.8,10.7 C10.1,10.7 10.3,10.5 10.3,10.2 L10.3,9.4 C10.4,9.1 10.1,8.9 9.9,8.9 Z" id="Shape"></path>
            <path d="M9.9,11.9 L9,11.9 C8.7,11.9 8.5,12.1 8.5,12.4 L8.5,13.2 C8.5,13.5 8.7,13.7 9,13.7 L9.8,13.7 C10.1,13.7 10.3,13.5 10.3,13.2 L10.3,12.4 C10.4,12.1 10.1,11.9 9.9,11.9 Z" id="Shape"></path>
        </g>
    </g>
</svg>