<?xml version="1.0" encoding="utf-8"?>
<!-- Generator: Adobe Illustrator 22.1.0, SVG Export Plug-In . SVG Version: 6.00 Build 0)  -->
<svg version="1.1" id="Layer_1" xmlns="http://www.w3.org/2000/svg" xmlns:xlink="http://www.w3.org/1999/xlink" x="0px" y="0px"
	 viewBox="0 0 21 19" style="enable-background:new 0 0 21 19;" xml:space="preserve">
<style type="text/css">
	.st0{fill:#FFFFFF;stroke:#000000;stroke-width:1.5;stroke-miterlimit:10;}
	.st1{fill:#000000;stroke:#000000;stroke-width:1.5;stroke-linecap:round;stroke-miterlimit:10;}
</style>
<path class="st0" d="M18.9,16.9H2.1c-0.5,0-1-0.5-1-1V3.1c0-0.5,0.4-1,1-1h16.8c0.5,0,1,0.5,1,1v12.8C19.9,16.4,19.4,16.9,18.9,16.9
	z"/>
<path class="st0" d="M16.9,8.1h-2.7C14.1,8.1,14,8,14,7.9V5.2C14,5,14.1,5,14.2,5h2.7C17,5,17.1,5,17.1,5.2v2.7
	C17.1,8,17,8.1,16.9,8.1z"/>
<line class="st1" x1="17.1" y1="11.3" x2="12.8" y2="11.3"/>
<line class="st1" x1="17.1" y1="14.2" x2="12.8" y2="14.2"/>
<path d="M10.2,4.2H9.4c-0.3,0-0.5,0.2-0.5,0.5v0.8c0,0.3,0.2,0.5,0.5,0.5h0.8c0.3,0,0.5-0.2,0.5-0.5V4.7C10.7,4.5,10.5,4.2,10.2,4.2
	z"/>
<path d="M10.2,7.2H9.4c-0.3,0-0.5,0.2-0.5,0.5v0.8c0,0.3,0.2,0.5,0.5,0.5h0.8c0.3,0,0.5-0.2,0.5-0.5V7.7C10.7,7.5,10.5,7.2,10.2,7.2
	z"/>
<path d="M10.2,10.2H9.4c-0.3,0-0.5,0.2-0.5,0.5v0.8c0,0.3,0.2,0.5,0.5,0.5h0.8c0.3,0,0.5-0.2,0.5-0.5v-0.8
	C10.7,10.5,10.5,10.2,10.2,10.2z"/>
<path d="M10.2,13.2H9.4c-0.3,0-0.5,0.2-0.5,0.5v0.8c0,0.3,0.2,0.5,0.5,0.5h0.8c0.3,0,0.5-0.2,0.5-0.5v-0.8
	C10.7,13.5,10.5,13.2,10.2,13.2z"/>
</svg>
