<!-- Generator: Adobe Illustrator 21.0.2, SVG Export Plug-In  -->
<svg version="1.1"
	 xmlns="http://www.w3.org/2000/svg" xmlns:xlink="http://www.w3.org/1999/xlink" xmlns:a="http://ns.adobe.com/AdobeSVGViewerExtensions/3.0/"
	 x="0px" y="0px" width="20.8px" height="19.9px" viewBox="0 0 20.8 19.9" style="enable-background:new 0 0 20.8 19.9;"
	 xml:space="preserve">
<defs>
</defs>
<g transform="translate(0,-952.36218)">
	<path d="M8.5,954.5c-0.1,2.6-0.4,4.1-1.9,6.3c-0.3-0.2-0.6-0.4-1-0.4H1.4c-0.8,0-1.4,0.6-1.4,1.4v8.5c0,0.8,0.6,1.4,1.4,1.4h4.2
		c0.4,0,0.8-0.2,1-0.4c0.2,0.1,0.4,0.3,0.6,0.4c0.4,0.2,0.9,0.4,1.5,0.5c1.2,0.1,3.2,0,7.7,0.1c0.2,0,0.3-0.1,0.4-0.2
		c0.9-0.7,1.3-1.5,1.5-2.3c0.1,0,0.1-0.1,0.2-0.2c0.7-0.9,1-1.8,0.8-2.7l0.1-0.1c0.8-1,1-2.2,0.8-3.1c0.5-0.6,0.7-1.3,0.6-2
		c-0.1-0.8-0.6-1.5-1.4-1.9c-0.1,0-0.2-0.1-0.3-0.1h-5.8c0.3-2.3,0.1-4.4-0.7-5.9c-0.5-0.8-1.2-1.3-1.9-1.4
		C9.6,952.4,8.5,953,8.5,954.5L8.5,954.5z M10.6,953.9c0.4,0,0.8,0.3,0.9,0.7c0.6,1.1,0.9,3.4,0.5,5.8c-0.1,0.4,0.3,0.8,0.7,0.8h6.4
		c0.3,0.1,0.4,0.4,0.5,0.7c0,0.3-0.1,0.6-0.4,1H16c-0.4,0-0.7,0.3-0.7,0.7s0.3,0.7,0.7,0.7h3.1c0.1,0.4,0,0.9-0.4,1.4H16
		c-0.4,0-0.7,0.3-0.7,0.7s0.3,0.7,0.7,0.7h2.1c0.1,0.4,0,0.9-0.4,1.4H16c-0.4,0-0.7,0.3-0.7,0.7s0.3,0.7,0.7,0.7h1
		c-0.1,0.3-0.4,0.6-0.8,0.9c-4.3,0-6.3,0.1-7.3,0c-0.5-0.1-0.7-0.1-0.9-0.3c-0.2-0.1-0.5-0.4-0.9-0.7v-7.2c2.2-3,2.8-5,2.9-8.1
		C10.1,954.1,10.3,953.9,10.6,953.9L10.6,953.9z M1.4,961.9h4.2c0,2.8,0,5.7,0,8.5H1.4V961.9z M3.5,967.3c-0.5,0-0.9,0.4-0.9,0.9
		s0.4,0.9,0.9,0.9s0.9-0.4,0.9-0.9C4.5,967.7,4.1,967.3,3.5,967.3L3.5,967.3z"/>
</g>
</svg>