<!-- Generator: Adobe Illustrator 21.0.2, SVG Export Plug-In  -->
<svg version="1.1"
	 xmlns="http://www.w3.org/2000/svg" xmlns:xlink="http://www.w3.org/1999/xlink" xmlns:a="http://ns.adobe.com/AdobeSVGViewerExtensions/3.0/"
	 x="0px" y="0px" width="87.9px" height="82.8px" viewBox="0 0 87.9 82.8" style="enable-background:new 0 0 87.9 82.8;"
	 xml:space="preserve">
<defs>
</defs>
<path d="M87.9,49.9c0-2.6-1.3-4.9-3.2-6.3c0.3-0.2,0.7-0.5,0.9-0.8c1.5-1.5,2.3-3.4,2.3-5.5c0-4.3-3.5-7.8-7.8-7.8H58.6H47.7
	c3.2-7,4.6-14.5,5.2-19.7c0-0.3,0.1-0.6,0.1-1C53,4,49.1,0,44.2,0c0,0,0,0-0.1,0c-4.4,0-8.2,3.3-8.8,7.7
	c-0.7,5.9-3.2,19.8-10.5,21.9c-0.4,0.1-0.8,0.2-1.2,0.2c-0.2-0.2-0.5-0.3-0.8-0.3H1.5C0.7,29.5,0,30.2,0,31v44.8
	c-0.1,0.9,0.6,1.6,1.5,1.6h20.4c1.1,3.1,4.1,5.4,7.7,5.4h29h21.5c2.1,0,4-0.8,5.5-2.3s2.3-3.5,2.3-5.5c0-2.6-1.3-4.9-3.2-6.3
	c0.3-0.2,0.6-0.5,0.9-0.8c1.5-1.5,2.3-3.4,2.3-5.5c0-2.6-1.3-4.9-3.2-6.3c0.3-0.2,0.7-0.5,0.9-0.8C87,53.9,87.9,52,87.9,49.9z
	 M3,74.3V32.5h18.4v41.8 M55.3,33.9c0.9-0.9,2.1-1.4,3.3-1.4h21.5c2.6,0,4.8,2.1,4.8,4.8c0,1.3-0.5,2.5-1.4,3.4s-2.1,1.4-3.4,1.4
	H58.6c-2.6,0-4.7-2.1-4.7-4.8C53.9,36,54.4,34.8,55.3,33.9z M51,76.4c0,0.2,0.1,0.3,0.1,0.4c0.1,0.3,0.2,0.6,0.3,0.9
	c0.1,0.2,0.1,0.3,0.2,0.5c0.1,0.3,0.3,0.5,0.4,0.8c0.1,0.1,0.2,0.3,0.3,0.4s0.1,0.2,0.2,0.2H29.6c-2.8,0-5.1-2.3-5.1-5.1V32.7
	c0.4-0.1,0.8-0.1,1.3-0.3C34.1,30.1,37.3,17.8,38.5,8c0.4-2.9,2.8-5,5.7-5l0,0C47.4,3,50,5.6,50,8.8c0,0.2,0,0.5,0,0.6
	c-0.6,5.6-2.2,13.7-6,20.9c-0.2,0.5-0.2,1,0,1.5c0.3,0.5,0.8,0.7,1.3,0.7h7.2c-0.1,0.1-0.1,0.2-0.2,0.3c-0.1,0.1-0.2,0.3-0.3,0.5
	c-0.2,0.3-0.3,0.5-0.4,0.8c-0.1,0.2-0.1,0.3-0.2,0.5c-0.1,0.3-0.2,0.6-0.3,0.9c0,0.1-0.1,0.3-0.1,0.4c-0.1,0.5-0.1,0.9-0.1,1.4
	s0.1,1,0.1,1.4c0,0.1,0,0.2,0,0.3c0.1,0.4,0.2,0.9,0.4,1.3c0,0.1,0.1,0.2,0.1,0.2c0.2,0.4,0.4,0.8,0.6,1.2l0,0
	c0.2,0.4,0.5,0.7,0.8,1c0.1,0.1,0.1,0.1,0.2,0.2c0.3,0.3,0.5,0.5,0.8,0.7c-0.3,0.2-0.6,0.5-0.8,0.7c0,0,0,0-0.1,0
	c-0.4,0.4-0.7,0.8-1,1.2c-0.2,0.2-0.3,0.5-0.4,0.7c-0.1,0.2-0.2,0.4-0.3,0.6c-0.2,0.4-0.3,0.8-0.4,1.2c0,0.1-0.1,0.2-0.1,0.2
	c-0.1,0.5-0.1,1-0.1,1.5s0.1,1,0.1,1.4c0,0.1,0,0.2,0,0.2c0.1,0.4,0.2,0.9,0.4,1.3c0,0.1,0.1,0.2,0.1,0.2c0.2,0.4,0.4,0.8,0.6,1.2
	l0,0c0.2,0.4,0.5,0.7,0.8,1c0.1,0.1,0.1,0.1,0.2,0.2c0.3,0.3,0.5,0.5,0.8,0.7c-0.3,0.2-0.6,0.5-0.9,0.8c-1.2,1.7-2,3.7-2,5.7
	c0,0.5,0.1,1,0.1,1.4c0,0.1,0,0.2,0,0.2c0.1,0.4,0.2,0.9,0.4,1.3c0,0.1,0.1,0.2,0.1,0.2c0.2,0.4,0.4,0.8,0.6,1.2l0,0
	c0.2,0.4,0.5,0.7,0.8,1c0.1,0.1,0.1,0.1,0.2,0.2c0.3,0.3,0.5,0.5,0.8,0.7c-0.3,0.2-0.6,0.5-0.9,0.8c-1.5,1.5-2.3,3.5-2.3,5.5
	C50.8,75.5,50.9,76,51,76.4z M84.8,75c0,1.3-0.5,2.5-1.4,3.4s-2.1,1.4-3.4,1.4H58.6c-2.6,0-4.7-2.1-4.7-4.8c0-1.3,0.5-2.5,1.4-3.4
	s2.1-1.4,3.4-1.4h21.5C82.7,70.2,84.8,72.4,84.8,75z M84.8,62.4c0,1.3-0.5,2.5-1.4,3.3c-0.9,0.9-2.1,1.4-3.4,1.4H58.6
	c-2.6,0-4.7-2.1-4.7-4.7c0-1.3,0.5-2.5,1.4-3.4s2.1-1.4,3.3-1.4h21.5C82.7,57.7,84.8,59.8,84.8,62.4z M83.4,53.2
	c-0.9,0.9-2.1,1.4-3.4,1.4H58.6c-2.6,0-4.7-2.1-4.7-4.8c0-1.3,0.5-2.5,1.4-3.4s2.1-1.4,3.3-1.4h21.5c2.6,0,4.8,2.1,4.8,4.8
	C84.8,51.1,84.3,52.3,83.4,53.2z"/>
</svg>