<!-- Generator: Adobe Illustrator 21.0.2, SVG Export Plug-In  -->
<svg version="1.1"
	 xmlns="http://www.w3.org/2000/svg" xmlns:xlink="http://www.w3.org/1999/xlink" xmlns:a="http://ns.adobe.com/AdobeSVGViewerExtensions/3.0/"
	 x="0px" y="0px" width="118.7px" height="18.6px" viewBox="0 0 118.7 18.6" style="enable-background:new 0 0 118.7 18.6;"
	 xml:space="preserve">
<defs>
</defs>
<g>
	<path d="M28.5,10.2c0-2.9-0.3-5.2-6.1-5.2C17.6,5,16,6.7,16,9.6h4.3c0.1-1,1.1-1.5,1.8-1.5c0.5,0,1.6,0.1,1.6,1
		c0,2.7-8.3,0.2-8.3,5.8c0,2.5,2.6,3.6,4,3.5c1.8,0,3.2-0.4,4.6-1.7l0.5,1.3h4.3C28.5,17.7,28.5,10.2,28.5,10.2z M21.4,15.7
		c-1,0-1.4-0.7-1.4-1.3c0-1,2.2-1,3.7-1.8C23.9,14.3,23.1,15.7,21.4,15.7L21.4,15.7z M114,13c-0.1,1-0.6,2.1-1.9,2.1
		c-1.5,0-2.4-1.5-2.4-3.3c0-1.4,0.5-3.4,2.4-3.4c0.5,0,1,0.2,1.3,0.5s0.5,0.7,0.5,1.3h4.7c-0.3-3.6-3.2-5-6.4-5c-4,0-7,2.4-7,6.6
		c0,4.1,3.1,6.7,7,6.7c3.4,0,6.1-1.7,6.5-5.4L114,13L114,13L114,13z M99.9,18.1h4.7V5.6h-4.7V18.1z M99.9,3.7h4.7V0.5h-4.7V3.7z
		 M77.9,5.1c-4.1,0-7,2.5-7,6.7s3.1,6.6,7,6.6s7-2.4,7-6.9C84.9,7.7,82.2,5.1,77.9,5.1z M77.9,15.2c-1.2,0-2.2-1.3-2.2-3.6
		c0-1.4,0.6-3.1,2.2-3.1c1.3-0.1,2.1,1.4,2.1,3.2C80.1,13.9,79.2,15.2,77.9,15.2L77.9,15.2z M62.5,8.6c0-0.6,0.7-0.9,1.5-0.9
		c0.4,0,0.9,0.1,1.2,0.3c0.1,0.1,0.4,0.5,0.5,0.9h4.4C70,5.6,66.8,5,63.9,5c-2.5,0-5.8,1-5.8,4.1c0,5.1,7.8,3.3,7.8,5.2
		c0,0.9-0.6,1.2-1.8,1.2c-0.5,0-1-0.3-1.3-0.5c-0.3-0.3-0.5-0.6-0.5-1.1h-4.4c0.1,3.4,3.2,4.7,6,4.7c5.2,0,6.7-2.3,6.7-4.8
		C70.6,8.9,62.4,10.4,62.5,8.6L62.5,8.6z M57.2,10.2c0-2.9-0.3-5.2-6.1-5.2c-4.8,0-6.4,1.7-6.4,4.6H49c0.1-1,1.1-1.5,1.8-1.5
		c0.5,0,1.6,0.1,1.6,1c0,2.7-8.3,0.2-8.3,5.8c0,2.5,2.6,3.6,4,3.5c1.8,0,3.2-0.4,4.6-1.7l0.5,1.3h4.3C57.2,17.7,57.2,10.2,57.2,10.2
		z M50.1,15.7c-1,0-1.4-0.7-1.4-1.3c0-1,2.2-1,3.7-1.8C52.6,14.3,51.8,15.7,50.1,15.7L50.1,15.7z M8.3,0H0v18.1h5.3v-5.6h3.1
		c4.8,0,7.2-2.6,7.2-6.2C15.6,2.9,13.1,0,8.3,0L8.3,0z M8,8.5H5.3V4.4h2c1.2,0,2.9,0.3,2.9,1.9C10.2,7.8,9.3,8.5,8,8.5z M94.3,5.1
		c-1.8,0-2.6,0.3-4.3,1.9V5.6h-4.4v12.6H90v-6.6c0-1.6,0.8-2.5,2.3-2.5c1.4,0,1.7,0.7,1.7,1.9v7.2h4.8v-7.7
		C98.9,7.1,97.6,5.1,94.3,5.1z M38.7,5.1c-1.8,0-2.6,0.3-4.3,1.9V5.6H30v12.6h4.7v-6.6c0-1.6,0.6-2.7,2.1-2.7c1.4,0,1.6,0.9,1.6,2.1
		v7.2h4.8v-7.7C43.2,7.1,41.9,5.1,38.7,5.1L38.7,5.1z"/>
</g>
</svg>