<!-- Generator: Adobe Illustrator 21.1.0, SVG Export Plug-In  -->
<svg version="1.1"
	 xmlns="http://www.w3.org/2000/svg" xmlns:xlink="http://www.w3.org/1999/xlink" xmlns:a="http://ns.adobe.com/AdobeSVGViewerExtensions/3.0/"
	 x="0px" y="0px" width="19.9px" height="14.3px" viewBox="0 0 19.9 14.3" style="enable-background:new 0 0 19.9 14.3;"
	 xml:space="preserve">
<defs>
</defs>
<g>
	<path d="M19.4,0.7L19.4,0.7L19.4,0.7C19,0.3,18.4,0,17.9,0H2.1C1,0.1,0,1,0,2.2v10c0,1.2,1,2.1,2.1,2.1h15.7c1.2,0,2.1-1,2.1-2.1
		v-10C20,1.6,19.8,1.1,19.4,0.7z M1.4,2.5l4.7,4.7l-4.7,4.7C1.4,11.9,1.4,2.5,1.4,2.5z M10,9L2.4,1.5h15.1L10,9z M7.1,8.2l2.3,2.3
		c0.1,0.1,0.3,0.2,0.5,0.2s0.4-0.1,0.5-0.2l2.3-2.3l4.7,4.7H2.5L7.1,8.2z M13.9,7.2l4.7-4.7v9.4L13.9,7.2z"/>
</g>
</svg>
