<!-- Generator: Adobe Illustrator 21.0.2, SVG Export Plug-In  -->
<svg version="1.1"
	 xmlns="http://www.w3.org/2000/svg" xmlns:xlink="http://www.w3.org/1999/xlink" xmlns:a="http://ns.adobe.com/AdobeSVGViewerExtensions/3.0/"
	 x="0px" y="0px" width="284.3px" height="284.3px" viewBox="0 0 284.3 284.3" style="enable-background:new 0 0 284.3 284.3;"
	 xml:space="preserve">
<style type="text/css">
	.st0{clip-path:url(#SVGID_2_);fill:#4152f3;}
	.st1{clip-path:url(#SVGID_4_);fill:#4152f3;}
</style>
<defs>
</defs>
<g>
	<defs>
		
			<rect id="SVGID_1_" x="31.1" y="31.1" transform="matrix(0.9408 -0.339 0.339 0.9408 -39.7738 56.6111)" width="222.2" height="222.1"/>
	</defs>
	<clipPath id="SVGID_2_">
		<use xlink:href="#SVGID_1_"  style="overflow:visible;"/>
	</clipPath>
	<path class="st0" d="M104.5,37.7c-12.6,4.5-23.9,11.1-33.6,19.3L142.7,31C130,31,117.1,33.1,104.5,37.7"/>
	<path class="st0" d="M159,32.3l-99.8,36c-2.8,3.2-5.5,6.5-7.9,10L171.4,35C167.4,33.9,163.2,33,159,32.3"/>
	<path class="st0" d="M181.8,38.4L45.4,87.6c-1.6,2.9-3.1,5.8-4.4,8.8l149.9-54C187.9,40.9,184.9,39.6,181.8,38.4"/>
	<path class="st0" d="M198.8,46.6L37.6,104.7c-0.9,2.7-1.8,5.4-2.6,8.1l170.9-61.6C203.6,49.6,201.2,48,198.8,46.6"/>
	<path class="st0" d="M212.3,56L33.2,120.6c-0.5,2.5-0.9,5.1-1.2,7.6l186.2-67.1C216.3,59.3,214.3,57.7,212.3,56"/>
	<path class="st0" d="M223.4,66.4L31.2,135.6c-0.1,2.4-0.2,4.8-0.2,7.2l197.1-71C226.6,69.9,225,68.1,223.4,66.4"/>
	<path class="st0" d="M232.4,77.4L31.3,149.9c0.2,2.3,0.4,4.6,0.7,6.9l204.3-73.6C235.1,81.2,233.8,79.3,232.4,77.4"/>
	<path class="st0" d="M239.8,89.1L33.1,163.5c0.4,2.2,0.9,4.4,1.5,6.6l208.1-75C241.8,93.1,240.8,91.1,239.8,89.1"/>
	<path class="st0" d="M245.5,101.3L36.6,176.6c0.3,1.1,0.7,2.1,1.1,3.2c0.4,1.1,0.8,2.1,1.2,3.1l208.9-75.3
		c-0.3-1.1-0.7-2.1-1.1-3.2C246.3,103.4,245.9,102.4,245.5,101.3"/>
	<path class="st0" d="M44.6,195.2l206.6-74.5c-0.4-2.2-0.9-4.4-1.5-6.6l-208.1,75C42.5,191.2,43.5,193.2,44.6,195.2"/>
	<path class="st0" d="M51.9,206.9L253,134.4c-0.2-2.3-0.4-4.6-0.7-6.9L48,201.1C49.2,203.1,50.5,205,51.9,206.9"/>
	<path class="st0" d="M60.9,217.9l192.1-69.2c0.1-2.4,0.2-4.8,0.2-7.2l-197.1,71C57.7,214.4,59.3,216.2,60.9,217.9"/>
	<path class="st0" d="M72,228.3l179.2-64.6c0.5-2.5,0.9-5,1.2-7.6L66.2,223.2C68,225,70,226.6,72,228.3"/>
	<path class="st0" d="M85.5,237.7l161.2-58.1c0.9-2.7,1.8-5.4,2.6-8.1L78.4,233.1C80.7,234.7,83.1,236.3,85.5,237.7"/>
	<path class="st0" d="M102.5,245.9l136.4-49.2c1.6-2.9,3.1-5.8,4.4-8.8L93.5,242C96.4,243.4,99.4,244.7,102.5,245.9"/>
	<path class="st0" d="M125.3,252l99.8-36c2.8-3.2,5.5-6.5,7.9-10l-120.2,43.3C117,250.4,121.1,251.3,125.3,252"/>
	<path class="st0" d="M179.8,246.6c12.6-4.5,23.9-11.1,33.6-19.3l-71.8,25.9C154.3,253.3,167.2,251.2,179.8,246.6"/>
</g>
</svg>