<!-- Generator: Adobe Illustrator 21.0.2, SVG Export Plug-In  -->
<svg version="1.1"
	 xmlns="http://www.w3.org/2000/svg" xmlns:xlink="http://www.w3.org/1999/xlink" xmlns:a="http://ns.adobe.com/AdobeSVGViewerExtensions/3.0/"
	 x="0px" y="0px" width="88px" height="71.1px" viewBox="0 0 88 71.1" style="enable-background:new 0 0 88 71.1;"
	 xml:space="preserve">
<defs>
</defs>
<g>
	<path d="M23.5,12.4h-6.7C9.9,12.4,4.2,18,4.2,25v29.3c0,6.9,5.6,12.6,12.6,12.6h54.4c6.9,0,12.6-5.6,12.6-12.6V25
		c0-6.9-5.6-12.6-12.6-12.6h-6.7c-1.7,0-3.2-0.9-4-2.4l-2.1-3.9c-0.6-1.2-1.9-1.9-3.3-1.9H32.6c-1.3,0-2.4,0.7-3,1.8l-2,3.9
		C26.8,11.4,25.2,12.4,23.5,12.4z M23.5,8.2c0.2,0,0.3-0.1,0.4-0.2l2-3.9C27.2,1.6,29.8,0,32.6,0h22.5C58,0,60.7,1.6,62,4.1L64.1,8
		c0.1,0.1,0.2,0.2,0.4,0.2h6.7C80.5,8.2,88,15.7,88,25v29.3c0,9.3-7.5,16.8-16.7,16.8H16.8C7.5,71.1,0,63.6,0,54.3V25
		C0,15.7,7.5,8.2,16.7,8.2H23.5z M16.8,29.2c-2.3,0-4.2-1.9-4.2-4.2s1.9-4.2,4.2-4.2S21,22.6,21,25S19.1,29.2,16.8,29.2z M44,58.5
		c-10.4,0-18.8-8.4-18.8-18.9S33.6,20.8,44,20.8s18.8,8.4,18.8,18.9S54.4,58.5,44,58.5z M44,54.3c8.1,0,14.7-6.6,14.7-14.7
		S52.1,25,44,25s-14.7,6.6-14.7,14.7S35.9,54.3,44,54.3z"/>
</g>
</svg>