<?xml version="1.0" encoding="UTF-8"?>
<svg width="54px" height="60px" viewBox="0 0 54 60" version="1.1" xmlns="http://www.w3.org/2000/svg" xmlns:xlink="http://www.w3.org/1999/xlink">
    <!-- Generator: Sketch 50.2 (55047) - http://www.bohemiancoding.com/sketch -->
    <title>Artboard 1</title>
    <desc>Created with Sketch.</desc>
    <defs></defs>
    <g id="Page-1" stroke="none" stroke-width="1" fill="none" fill-rule="evenodd">
        <g id="Artboard-1" transform="translate(1.000000, 1.000000)" stroke="#000000" stroke-width="4">
            <path d="M3.2411,3.9286 L3.2411,55.8026 L49.4321,29.8656 L3.2411,3.9286 Z M2.4161,58.1846 C2.2331,58.1846 2.1411,58.1846 1.9581,58.0936 C1.6831,57.9096 1.5001,57.6356 1.5001,57.3596 L1.5001,2.3706 C1.5001,2.0956 1.6831,1.7286 1.9581,1.6376 C2.2331,1.4536 2.5991,1.4536 2.8751,1.6376 L51.7231,29.1326 C51.9981,29.3156 52.1811,29.5906 52.1811,29.8656 C52.1811,30.1396 51.9981,30.5066 51.7231,30.5986 L2.8751,58.0936 C2.6911,58.1846 2.5081,58.1846 2.4161,58.1846 Z" id="Fill-1" fill="#000000"></path>
            <path d="M3.2411,3.9286 L3.2411,55.8026 L49.4321,29.8656 L3.2411,3.9286 Z M2.4161,58.1846 C2.2331,58.1846 2.1411,58.1846 1.9581,58.0936 C1.6831,57.9096 1.5001,57.6356 1.5001,57.3596 L1.5001,2.3706 C1.5001,2.0956 1.6831,1.7286 1.9581,1.6376 C2.2331,1.4536 2.5991,1.4536 2.8751,1.6376 L51.7231,29.1326 C51.9981,29.3156 52.1811,29.5906 52.1811,29.8656 C52.1811,30.1396 51.9981,30.5066 51.7231,30.5986 L2.8751,58.0936 C2.6911,58.1846 2.5081,58.1846 2.4161,58.1846 Z" id="Stroke-3" stroke="#000000" stroke-width="3"></path>
        </g>
    </g>
</svg>