<!-- Generator: Adobe Illustrator 21.0.2, SVG Export Plug-In  -->
<svg version="1.1"
	 xmlns="http://www.w3.org/2000/svg" xmlns:xlink="http://www.w3.org/1999/xlink" xmlns:a="http://ns.adobe.com/AdobeSVGViewerExtensions/3.0/"
	 x="0px" y="0px" width="91.2px" height="78.4px" viewBox="0 0 91.2 78.4" style="enable-background:new 0 0 91.2 78.4;"
	 xml:space="preserve">
<defs>
</defs>
<g>
	<path d="M88.8,73.7c-3.3-3.1-5.5-6.8-6.6-11C84,59,84.8,55.1,84.8,51V27.4C84.9,12.3,72.6,0,57.5,0H27.4C12.3,0,0,12.3,0,27.4V51
		c0,15.1,12.3,27.4,27.4,27.4h30.1c4.2,0,8.4-1,12.2-2.9c4,1.8,7.8,2.7,11.5,2.7c2.4,0,4.7-0.4,6.9-1.1l3.1-1.1L88.8,73.7z
		 M81.2,74.2c-3.4,0-7-0.9-10.7-2.7L69.6,71l-0.9,0.5c-3.4,1.9-7.3,2.9-11.2,2.9H27.4C14.5,74.4,4,63.9,4,51V27.4
		C4,14.5,14.5,4,27.4,4h30.1c12.9,0,23.4,10.5,23.4,23.4V51c0,3.7-0.9,7.2-2.5,10.5L78,62.2l0.2,0.7c0.9,4.1,2.7,7.9,5.4,11.1
		C82.8,74.1,82,74.2,81.2,74.2z"/>
	<path d="M20,31.2c-4.4,0-8,3.6-8,8s3.6,8,8,8s8-3.6,8-8S24.4,31.2,20,31.2z M20,43.1c-2.2,0-3.9-1.8-3.9-3.9s1.8-3.9,3.9-3.9
		s3.9,1.8,3.9,3.9S22.2,43.1,20,43.1z"/>
	<path d="M42,31.2c-4.4,0-8,3.6-8,8s3.6,8,8,8s8-3.6,8-8S46.4,31.2,42,31.2z M42,43.1c-2.2,0-3.9-1.8-3.9-3.9s1.8-3.9,3.9-3.9
		c2.2,0,3.9,1.8,3.9,3.9S44.2,43.1,42,43.1z"/>
	<path d="M64.1,31.2c-4.4,0-8,3.6-8,8s3.6,8,8,8s8-3.6,8-8S68.5,31.2,64.1,31.2z M64.1,43.1c-2.2,0-3.9-1.8-3.9-3.9s1.8-3.9,3.9-3.9
		s3.9,1.8,3.9,3.9S66.3,43.1,64.1,43.1z"/>
</g>
</svg>