<svg xmlns="http://www.w3.org/2000/svg" viewBox="0 0 53.38 51.53"><defs><style>.cls-1{stroke:#000;stroke-miterlimit:10;stroke-width:2.83px;}</style></defs><title>12Ресурс 1</title><g id="Слой_2" data-name="Слой 2"><g id="Layer_1" data-name="Layer 1"><path class="cls-1" d="M34.75,16.52l-7.5-14.6a1.05,1.05,0,0,0-.9-.5h0a1,1,0,0,0-.9.6l-7,14.9-16.2,2.7a1,1,0,0,0-.8.7.91.91,0,0,0,.3,1l12,11.3-2.5,16.3a1,1,0,0,0,.4,1,1.42,1.42,0,0,0,.6.2.9.9,0,0,0,.5-.1l14.4-7.9,14.7,7.4a1.11,1.11,0,0,0,1.1-.1,1,1,0,0,0,.4-1l-3.1-16.2,11.4-11.9a.8.8,0,0,0,.2-1c-.2-.3-.4-.7-.8-.7Zm3.6,14.4a1.4,1.4,0,0,0-.3.9l2.8,14.7-13.4-6.7a1.39,1.39,0,0,0-.9,0L13.45,47l2.2-14.8a1.4,1.4,0,0,0-.3-.9L4.55,21.12l14.8-2.4a1.06,1.06,0,0,0,.7-.6l6.3-13.5,6.9,13.3a.89.89,0,0,0,.8.5l14.8,1.9Z"/></g></g></svg>