<!-- Generator: Adobe Illustrator 21.0.2, SVG Export Plug-In  -->
<svg version="1.1"
	 xmlns="http://www.w3.org/2000/svg" xmlns:xlink="http://www.w3.org/1999/xlink" xmlns:a="http://ns.adobe.com/AdobeSVGViewerExtensions/3.0/"
	 x="0px" y="0px" width="53.4px" height="51.5px" viewBox="0 0 53.4 51.5" style="enable-background:new 0 0 53.4 51.5;"
	 xml:space="preserve">
<style type="text/css">
	.st0{stroke:#000000;stroke-width:2.8346;stroke-miterlimit:10;}
</style>
<defs>
</defs>
<path class="st0" d="M34.8,16.5L27.3,1.9c-0.2-0.3-0.5-0.5-0.9-0.5l0,0c-0.4,0-0.7,0.2-0.9,0.6l-7,14.9L2.3,19.6
	c-0.4,0.1-0.7,0.3-0.8,0.7c-0.1,0.4,0,0.8,0.3,1l12,11.3l-2.5,16.3c-0.1,0.4,0.1,0.8,0.4,1c0.2,0.1,0.4,0.2,0.6,0.2
	c0.2,0,0.3,0,0.5-0.1l14.4-7.9l14.7,7.4c0.3,0.2,0.7,0.1,1.1-0.1c0.3-0.2,0.5-0.6,0.4-1l-3.1-16.2l11.4-11.9c0.3-0.3,0.4-0.7,0.2-1
	s-0.4-0.7-0.8-0.7L34.8,16.5z M38.4,30.9c-0.2,0.2-0.3,0.6-0.3,0.9l2.8,14.7l-13.4-6.7c-0.3-0.1-0.6-0.1-0.9,0L13.5,47l2.2-14.8
	c0-0.3-0.1-0.7-0.3-0.9L4.6,21.1l14.8-2.4c0.3-0.1,0.6-0.3,0.7-0.6l6.3-13.5l6.9,13.3c0.2,0.3,0.4,0.5,0.8,0.5l14.8,1.9L38.4,30.9z"
	/>
</svg>