<?xml version="1.0" encoding="UTF-8"?>
<svg width="53px" height="52px" viewBox="0 0 53 52" version="1.1" xmlns="http://www.w3.org/2000/svg" xmlns:xlink="http://www.w3.org/1999/xlink">
    <!-- Generator: Sketch 50.2 (55047) - http://www.bohemiancoding.com/sketch -->
    <title>Stroke 3</title>
    <desc>Created with Sketch.</desc>
    <defs></defs>
    <g id="Page-1" stroke="none" stroke-width="1" fill="none" fill-rule="evenodd">
        <g id="Artboard-1" fill="#000000" fill-rule="nonzero">
            <path d="M45.8289495,21.3579537 L33.9493073,19.8328645 C33.1023948,19.8014845 32.5344644,19.3900057 32.0763836,18.706303 L31.9957125,18.5700012 L26.4221938,7.82528473 L21.3655137,18.6610278 C21.0934614,19.3683979 20.4990998,19.8301096 19.8032529,20.0620586 L19.6947736,20.0982183 L7.61446297,22.0571876 L16.3573239,30.3149761 C16.8468912,30.8045435 17.0725,31.5377721 17.0725,32.2173 L17.057094,32.4257194 L15.2774036,44.3981823 L25.984849,38.5131741 L26.1067471,38.4725414 C26.6977128,38.2755529 27.3122872,38.2755529 27.9032529,38.4725414 L28.0889253,38.5494495 L38.9264768,43.9682252 L36.6375,31.9510972 L36.6375,31.8173 C36.6375,31.1391984 36.8621627,30.4076213 37.3495968,29.9180622 L45.8289495,21.3579537 Z M39.4916501,31.7840409 L42.7835232,49.0663748 L27.0148606,41.1820435 L11.6325964,49.6364177 L14.2245797,32.1994392 L1.49539858,20.1774348 L18.8420716,17.3644608 L26.2878062,1.40931527 L34.3912907,17.0313393 L51.8810505,19.2766463 L39.4916501,31.7840409 Z M18.7586577,17.5475424 C18.742345,17.5815565 18.7260166,17.6217215 18.7102414,17.6690471 L18.7586577,17.5475424 Z M14.2375,32.2173 C14.2375,32.2200175 14.2347176,32.2120613 14.2653382,32.2379334 L14.2434911,32.2173 L14.2375,32.2173 Z M39.3620629,31.9148623 L39.3573239,31.9196239 C39.4802245,31.7967232 39.4725,31.8218279 39.4725,31.8173 L39.4587048,31.8173 L39.3620629,31.9148623 Z M35.6743593,15.2066524 L51.1715512,17.2031007 C51.6407834,17.2298244 52.0530587,17.4174137 52.3896487,17.7144048 C52.604702,17.9041578 52.7488431,18.0905471 52.9218938,18.356779 C52.9308131,18.3705009 53.0163973,18.5039615 53.0344313,18.5310125 C53.6457138,19.4479362 53.4048144,20.5721333 52.6785543,21.2979339 L41.783718,32.6696164 L44.730177,48.0735058 C44.975296,49.0539816 44.543315,50.0602601 43.7431053,50.5955174 L43.5889253,50.6851505 C42.7483606,51.1054329 41.9355077,51.2250395 41.1568658,50.7528335 L27.1833036,43.7185233 L13.3889253,51.2851505 C13.1725653,51.3933305 12.964967,51.4651915 12.7380356,51.5030134 C12.56944,51.5311126 12.4735688,51.5348 12.255,51.5348 C11.7847543,51.5348 11.5272316,51.438229 11.0210747,51.1851505 L10.8687125,51.0967313 C10.0878612,50.5761638 9.65804079,49.6081924 9.86152776,48.6525669 L12.2409644,33.1386401 L0.847955231,22.4102231 C0.103690527,21.8378888 -0.146386914,20.8783454 0.079823006,19.9735058 C0.314786242,19.0336528 1.00545411,18.4685609 1.91120575,18.242123 L17.4883197,15.6413607 L24.1871495,1.38337473 C24.6193208,0.519031966 25.3981688,-0.0002 26.355,-0.0002 C27.2283058,-0.0002 27.9679157,0.431239082 28.4344313,1.13101247 L28.5159015,1.269663 L35.6743593,15.2066524 Z M50.6101719,19.9892086 C50.5929399,19.9533256 50.5788626,19.9177853 50.5676383,19.882834 C50.5485929,19.8691962 50.5306622,19.85494 50.5139513,19.8401952 C50.4869474,19.8163681 50.5020867,19.8359448 50.5449062,19.901821 C50.5432036,19.8992016 50.5696988,19.9405353 50.6002793,19.9879341 L50.6101719,19.9892086 Z M51.055,20.0348 L50.9440983,20.0276859 C50.9801969,20.0323344 51.0172406,20.0348 51.055,20.0348 Z M50.6526761,19.3149761 C50.649856,19.3177963 50.647064,19.3207101 50.6443028,19.3237156 L50.6526761,19.3149761 Z M50.0729941,19.9200059 L33.8336407,17.8279476 L26.3961318,3.34766607 L19.4217032,18.1932355 L3.34968533,20.8719051 L15.2690356,32.0959599 L12.7695655,48.3925051 L27.1266459,40.5160513 L41.8146601,47.9100176 L38.7241984,31.7650709 L39.2304457,31.2366661 L50.0729941,19.9200059 Z M41.9627771,48.683799 L41.9554492,48.6455172 C41.9570327,48.6585473 41.9594668,48.6713341 41.9627771,48.683799 Z M42.3314302,48.1701604 L42.3055456,48.15713 C42.2406339,48.1888809 42.1970364,48.2057407 42.1841278,48.2106761 C42.2373507,48.2055924 42.2945398,48.2075424 42.3558893,48.2190786 L42.3314302,48.1701604 Z M42.1841278,48.2106761 C42.1813141,48.2117518 42.1799584,48.2122611 42.1801579,48.2122345 C42.1827256,48.2118921 42.1853155,48.2115707 42.1879271,48.2112707 L42.1841278,48.2106761 Z M42.5531965,48.2865874 L42.6412875,48.3378687 C42.612041,48.318371 42.5825718,48.3013346 42.5531965,48.2865874 Z M12.4328123,48.719307 C12.4410873,48.7229635 12.4474559,48.7255803 12.4527175,48.7275534 C12.450694,48.7267946 12.4485912,48.7260357 12.4464078,48.7252791 L12.4328123,48.719307 Z M12.6413181,49.205731 L12.630177,49.2610942 C12.6348477,49.2424112 12.6385501,49.2239465 12.6413181,49.205731 Z" id="Stroke-3"></path>
        </g>
    </g>
</svg>