<!-- Generator: Adobe Illustrator 21.0.2, SVG Export Plug-In  -->
<svg version="1.1"
	 xmlns="http://www.w3.org/2000/svg" xmlns:xlink="http://www.w3.org/1999/xlink" xmlns:a="http://ns.adobe.com/AdobeSVGViewerExtensions/3.0/"
	 x="0px" y="0px" width="91.1px" height="73.4px" viewBox="0 0 91.1 73.4" style="enable-background:new 0 0 91.1 73.4;"
	 xml:space="preserve">
<defs>
</defs>
<g>
	<path d="M8.9,51.7h73.3V7.2H8.9V51.7z M11,9.3h69.1v40.3H11V9.3z"/>
	<path d="M86.8,0H4.2C1.8,0,0,1.8,0,4.2v50.7c0,2.4,1.8,4.2,4.2,4.2h30.1v4.3h-8.4c-2.7,0-4.8,2.1-4.8,4.8v3.7
		c0,0.9,0.6,1.5,1.5,1.5h45.9c0.9,0,1.5-0.6,1.5-1.5v-3.7c0-2.7-2.1-4.8-4.8-4.8h-8.4v-4.3h30.1c2.4,0,4.2-1.8,4.2-4.2V4.2
		C91,1.8,89.2,0,86.8,0z M65.2,66.2c0.9,0,1.8,0.9,1.8,1.8v2.2H24V68c0-0.9,0.9-1.8,1.8-1.8h9.9c0.9,0,1.5-0.6,1.5-1.5v-5.8h16.6
		v5.8c0,0.9,0.6,1.5,1.5,1.5H65.2z M88,54.8c0,0.6-0.6,1.2-1.2,1.2H4.2C3.6,56,3,55.4,3,54.8V4.2C3,3.6,3.6,3,4.2,3h82.7
		c0.6,0,1.2,0.6,1.2,1.2L88,54.8L88,54.8z"/>
</g>
</svg>