<!-- Generator: Adobe Illustrator 21.0.2, SVG Export Plug-In  -->
<svg version="1.1"
	 xmlns="http://www.w3.org/2000/svg" xmlns:xlink="http://www.w3.org/1999/xlink" xmlns:a="http://ns.adobe.com/AdobeSVGViewerExtensions/3.0/"
	 x="0px" y="0px" width="93.6px" height="78.9px" viewBox="0 0 93.6 78.9" style="enable-background:new 0 0 93.6 78.9;"
	 xml:space="preserve">
<defs>
</defs>
<g>
	<path d="M64.1,24.1l-11-1.6l-4.9-10c-0.2-0.5-0.8-0.8-1.3-0.8c-0.6,0-1.1,0.3-1.3,0.8l-4.9,10l-11,1.6c-0.6,0.1-1,0.5-1.2,1
		s0,1.1,0.4,1.5l8,7.8l-1.9,11c-0.1,0.6,0.1,1.1,0.6,1.4c0.3,0.2,0.6,0.3,0.9,0.3c0.2,0,0.5-0.1,0.7-0.2l9.9-5.2l9.9,5.2
		c0.5,0.3,1.1,0.2,1.5-0.1s0.7-0.9,0.6-1.4l-1.9-11l8-7.8c0.4-0.4,0.5-1,0.4-1.5C65.1,24.6,64.6,24.2,64.1,24.1z M47.5,38.8
		c-0.4-0.2-0.9-0.2-1.4,0L38.2,43l1.5-8.8c0.1-0.5-0.1-1-0.4-1.3l-6.4-6.2l8.8-1.3c0.5-0.1,0.9-0.4,1.1-0.8l4-8l4,8
		c0.2,0.4,0.6,0.7,1.1,0.8l8.8,1.3l-6.4,6.2c-0.3,0.3-0.5,0.8-0.4,1.3l1.5,8.8L47.5,38.8z"/>
	<path d="M93.2,60.6L75.9,43.4l0.2-0.5C80.6,31.2,77.8,18,69,9.2C63,3.2,55.1,0,46.7,0S30.3,3.3,24.4,9.2
		c-8.7,8.7-11.5,21.8-7.3,33.3l0.2,0.4L0.4,59.8c-0.4,0.4-0.5,1-0.3,1.6c0.2,0.5,0.7,0.9,1.3,0.9L15,63.2l0.9,13.6
		c0,0.6,0.4,1.1,1,1.3c0.5,0.2,1.2,0.1,1.6-0.3L35.3,61l0.4,0.2c6.9,2.6,14.8,2.6,21.7,0.1l0.4-0.2l17.4,17.4c0.3,0.3,0.7,0.4,1,0.4
		c0.2,0,0.3,0,0.5-0.1c0.5-0.2,0.9-0.7,0.9-1.3l0.9-13.6L92.1,63c0.6,0,1.1-0.4,1.3-0.9C93.7,61.6,93.6,61,93.2,60.6z M60.7,59.9
		l0.9-0.5c2.7-1.5,5.2-3.3,7.4-5.5c2-2,3.7-4.3,5.2-6.8l0.5-0.9l14.2,14.1l-11.7,0.8c-0.7,0-1.3,0.6-1.4,1.4L75,74.2L60.7,59.9z
		 M18.5,45.9l0.5,0.9c1.4,2.6,3.2,5,5.3,7.1s4.5,3.9,7.1,5.3l0.9,0.5L18.6,73.4l-0.8-11.7c0-0.7-0.6-1.3-1.4-1.4L4.8,59.6L18.5,45.9
		z M66.9,51.8c-5.4,5.4-12.6,8.4-20.2,8.4s-14.8-3-20.2-8.4s-8.4-12.6-8.4-20.2c0-7.7,3-14.8,8.4-20.2S39.1,3,46.8,3
		c7.6,0,14.8,3,20.2,8.4C78.1,22.5,78.1,40.7,66.9,51.8z"/>
</g>
</svg>