<!-- Generator: Adobe Illustrator 21.0.2, SVG Export Plug-In  -->
<svg version="1.1"
	 xmlns="http://www.w3.org/2000/svg" xmlns:xlink="http://www.w3.org/1999/xlink" xmlns:a="http://ns.adobe.com/AdobeSVGViewerExtensions/3.0/"
	 x="0px" y="0px" width="469px" height="195.9px" viewBox="0 0 469 195.9" style="enable-background:new 0 0 469 195.9;"
	 xml:space="preserve">
<style type="text/css">
	.st0{fill:#C4C4C4;}
	.st1{fill:#AAA9A9;}
	.st2{fill:#F4A086;}
	.st3{fill:#F8B68F;}
	.st4{fill:#FFDB71;}
	.st5{fill:#043C5E;}
	.st6{fill:#3345F3;}
	.st7{fill:#2030A5;}
	.st8{fill:url(#SVGID_1_);}
	.st9{fill:#212B53;}
	.st10{fill:#404EB5;}
	.st11{fill:url(#SVGID_2_);}
	.st12{fill:#CBB8CD;}
	.st13{fill:#FFFFFF;}
	.st14{fill:#21307C;}
	.st15{fill:url(#SVGID_3_);}
	.st16{fill:url(#SVGID_4_);}
	.st17{fill:#FFD247;}
	.st18{fill:url(#SVGID_5_);}
	.st19{fill:url(#SVGID_6_);}
	.st20{fill:url(#SVGID_7_);}
	.st21{fill:url(#SVGID_8_);}
</style>
<defs>
</defs>
<polygon class="st0" points="92.2,61.4 109.9,97.3 149.5,103.1 120.8,131 127.6,170.5 92.2,151.9 56.7,170.5 63.5,131 34.9,103.1 
	74.5,97.3 "/>
<polygon class="st1" points="149.5,103.1 109.9,97.3 92.6,62.2 92.6,152.1 127.6,170.5 120.8,131 "/>
<polygon class="st0" points="207.1,61.4 224.8,97.3 264.4,103.1 235.8,131 242.5,170.5 207.1,151.9 171.7,170.5 178.4,131 
	149.8,103.1 189.4,97.3 "/>
<polygon class="st1" points="264.4,103.1 224.8,97.3 207.5,62.2 207.5,152.1 242.5,170.5 235.8,131 "/>
<polygon class="st0" points="321.8,61.4 339.5,97.3 379.1,103.1 350.4,131 357.2,170.5 321.8,151.9 286.3,170.5 293.1,131 
	264.4,103.1 304.1,97.3 "/>
<polygon class="st1" points="379.1,103.1 339.5,97.3 322.1,62.2 322.1,152.1 357.2,170.5 350.4,131 "/>
<g>
	<g>
		<polygon class="st2" points="26.3,36.2 23.3,42.8 18.5,38.5 21.9,28.9 		"/>
		<g>
			<path class="st3" d="M28,36.6c0.8,0.1,1.6,0.1,2-0.2c2.9-3.3,1.9-13.1,1.9-13.1l-3.4-2.9l-5.2,2.4l-1.4,5.4
				c-0.4,1.8,0.1,4.9,1.3,6.2l0,0C24.6,35.6,26.2,36.4,28,36.6z"/>
		</g>
	</g>
</g>
<path class="st3" d="M28.8,71.6c0,0,1.2,1.7,3.5,2.5c2.4,0.8,19.9-2.9,19.9-2.9l3.5,0.4c1.8,0.5,3.8,0.4,5.6-0.3l5.2-2l-30.3-0.6
	L24.6,54.3L28.8,71.6z"/>
<path class="st4" d="M18.5,38.5c0,0-7,9-8.6,14.9c-1.6,5.9-2.2,22.2-2.2,22.2h14.8c0,0,4.2-7.7,7.5-14.6c1-2.1,1-4.5,0.1-6.6
	c-2.4-5.5-6-13-6-13L18.5,38.5z"/>
<g>
	<g>
		<path class="st3" d="M26,173.8l1.2,3c0.3,0.8,0.8,1.5,1.6,2c0.8,0.5,2.1,1.3,4,1.8c-2.3,2-6.1-0.1-8.2-1.6c-1-0.7-1.8-1.8-2.1-3
			l-0.5-2.3H26z"/>
	</g>
	<path class="st5" d="M22.3,175.4c0,0-1.6,1.2-1.3,2.8c0.3,1.6,0.7,5.3,0.7,5.3h1.6l-0.1-3.5c0-0.2,3.5,3.5,4.1,3.5H36
		c0,0,0.6-2.3-4.5-3.1C26.4,179.7,22.3,175.4,22.3,175.4z"/>
</g>
<g>
	<g>
		<path class="st3" d="M9.3,173.8l1.2,3c0.3,0.8,0.8,1.5,1.6,2c0.8,0.5,2.1,1.3,4,1.8c-2.3,2-6.1-0.1-8.2-1.6c-1-0.7-1.8-1.8-2.1-3
			l-0.5-2.3H9.3z"/>
	</g>
	<path class="st5" d="M5.5,175.4c0,0-1.6,1.2-1.3,2.8c0.3,1.6,0.7,5.3,0.7,5.3h1.6l-0.1-3.5c0-0.2,3.5,3.5,4.1,3.5h8.6
		c0,0,0.6-2.3-4.5-3.1C9.7,179.7,5.5,175.4,5.5,175.4z"/>
</g>
<path class="st6" d="M22.4,75.8c0,0,7.3,11,1.1,54.7c1,16.5,2.8,43.7,2.8,43.7h-4.2c0,0-11.5-29-7.7-43.4
	c0.9-14.3-2.6-55.3-2.6-55.3L22.4,75.8z"/>
<path class="st7" d="M7.7,75.6c0,0-7.7,6.2-7.7,15.3c0,7.2,3.5,22.1,5.4,31.8c0.7,3.5,0,7.2-1,10.7c-4.1,14.1,0.9,41,0.9,41h4.1
	c0,0,0.2-13.8,5.9-44.8c6.5-35.6,7.1-54,7.1-54H7.7z"/>
<g>
	<linearGradient id="SVGID_1_" gradientUnits="userSpaceOnUse" x1="43.3059" y1="58.7077" x2="78.1392" y2="58.7077">
		<stop  offset="0" style="stop-color:#E0F0EB"/>
		<stop  offset="1" style="stop-color:#C0E4EF"/>
	</linearGradient>
	<polygon class="st8" points="67.4,69.3 43.3,69.3 43.3,67.5 66.3,67.5 76.6,48.1 78.1,48.9 	"/>
</g>
<path class="st3" d="M11.9,55c0,0,7.7,17.9,11.4,17.9c3.7,0,24.2-8.8,24.2-8.8l-0.5-3.1L26,64.6c0,0-1.9-4.9-3.1-10.6
	c-0.5-2.2-2.2-4.1-4.5-4.5C13.4,48.6,11.9,55,11.9,55z"/>
<path class="st9" d="M22.1,26.5c0,0,2.3,1.4,9.3-3.1c1.1,0.3-0.6-9.8-9.7-6.8c-6.3,2.1-6,8.2-5.7,11.6c0.3,3.7-1.6,6.1-4.1,8.8
	c-2.1,2.2-2.1,6.4-3.5,8.6c-1.7,2.7-3.6,2.6-4.9,5.3c-1.4,2.9-1.6,6.5,0.3,9.1c1.1,1.5,3.6,5.1,7.7,3.8c2.3-0.7,2.9-4.7,3-8
	c0.1-3,1.5-5.7,3.8-7.6c2.2-1.7,4.6-4.1,5.2-6.6C24.6,36.7,22.1,26.5,22.1,26.5z"/>
<path class="st3" d="M21.3,26.7c0.5-0.4,1.4-0.1,1.9,0.5c0.5,0.7,0.5,1.5,0,1.9c-0.5,0.4-1.4,0.1-1.9-0.5
	C20.7,27.9,20.7,27.1,21.3,26.7z"/>
<path class="st3" d="M58.4,62.6c0.1-0.4-0.2-0.9-0.6-1l-3.9-1.7c-1-0.4-2.1-0.5-3.1-0.1L46.8,61l-0.5,0l-0.4,3.6
	c0.8-0.3,1.2-0.5,1.2-0.5l2.5-0.9c0,0,5.4,4.6,7.3,0.4c0.6,4.1,1.7,3.6,1.7,3.6L58.4,62.6z"/>
<path class="st9" d="M18.6,23c0.8,2.8,4.8,4.1,8.9,3c4.1-1.1,6.4-4.3,6.1-7.1c-0.4-3.8-4.8-4.1-8.9-3S17.8,20.2,18.6,23z"/>
<path class="st10" d="M189.8,137.9l-2.9-1.8l9.2-4.1l-3.8-8.6c-1.8-3.7-6.3-6.7-10.6-6.7h-18.9c-4.3,0-8.9,3-10.6,6.7l-3.8,8.6
	l9.2,4.1l-2.9,1.8l-1.6,14.1l19.3-0.3l19.3,0.3L189.8,137.9z"/>
<path class="st3" d="M196.1,131.9l1.9,6.3c1.4,4.6-0.1,9.5-3.8,12.7l-8.6,6.7l-2.8-7.5l4.8-4.4c1.6-1.5,2-3.6,1.2-5.5l-1.8-4.1
	L196.1,131.9z"/>
<polygon class="st3" points="158.6,172.2 150.9,173.3 149.4,171.6 150.2,168.7 157.5,167.6 "/>
<g>
	<path class="st9" d="M150.9,173.3l-9.6,1.2c0,0-9.5,1.2-8.1-4c1.3-5,9.8-2.8,9.8-2.8l7.9,1l0,0c-1,1.3-1,3.2-0.1,4.5L150.9,173.3z"
		/>
	<path class="st9" d="M133.2,170.5c0.5-2,2.2-2.9,4.1-3.2v7.2C134.8,174.2,132.4,173.3,133.2,170.5z"/>
	<g>
		<line class="st9" x1="146.6" y1="169.1" x2="146.6" y2="172.2"/>
		<rect x="146.2" y="169.1" class="st9" width="0.8" height="3.1"/>
	</g>
	<g>
		<line class="st9" x1="144.7" y1="169.1" x2="144.7" y2="172.2"/>
		<rect x="144.3" y="169.1" class="st9" width="0.8" height="3.1"/>
	</g>
</g>
<path class="st3" d="M148.4,131.9l-1.9,6.3c-1.4,4.6,0.1,9.5,3.8,12.7l8.6,6.7l2.8-7.5l-4.8-4.4c-1.6-1.5-2-3.6-1.2-5.5l1.8-4.1
	L148.4,131.9z"/>
<polygon class="st3" points="186.7,172.8 194.5,173.3 195.9,171.6 195.2,168.7 187.8,167.6 "/>
<g>
	<path class="st9" d="M194.5,173.3l9.6,1.2c0,0,9.5,1.2,8.1-4c-1.3-5-9.8-2.8-9.8-2.8l-7.9,1l0,0c1,1.3,1,3.2,0.1,4.5L194.5,173.3z"
		/>
	<path class="st9" d="M212.2,170.5c-0.5-2-2.2-2.9-4.1-3.2v7.2C210.5,174.2,213,173.3,212.2,170.5z"/>
	<g>
		<line class="st9" x1="198.8" y1="169.1" x2="198.8" y2="172.2"/>
		<rect x="198.4" y="169.1" class="st9" width="0.8" height="3.1"/>
	</g>
	<g>
		<line class="st9" x1="200.7" y1="169.1" x2="200.7" y2="172.2"/>
		<rect x="200.3" y="169.1" class="st9" width="0.8" height="3.1"/>
	</g>
</g>
<g>
	<linearGradient id="SVGID_2_" gradientUnits="userSpaceOnUse" x1="157.6543" y1="150.5934" x2="189.4045" y2="150.5934">
		<stop  offset="0" style="stop-color:#E0F0EB"/>
		<stop  offset="1" style="stop-color:#C0E4EF"/>
	</linearGradient>
	<rect x="157.7" y="141.1" class="st11" width="31.8" height="19"/>
	<rect x="157.7" y="159.3" class="st12" width="31.8" height="1.6"/>
	<circle class="st13" cx="173.5" cy="148.8" r="1.3"/>
</g>
<path class="st6" d="M212.1,155c6.3,11.3-57.5,18.2-57.5,18.2l-1.1-5C153.5,168.2,204.3,141.1,212.1,155z"/>
<path class="st7" d="M133.2,155c-5.4,11.8,58.1,18.9,58.1,18.9l0.5-5.7C191.8,168.2,139.6,141.1,133.2,155z"/>
<g>
	<path class="st2" d="M175.6,116.6c-0.6-1.8-1.7-7.1-1.7-7.1l-6.8,1.3v5.8c0,0,2.3,1.6,4.2,1.6C173.3,118.2,175.6,116.8,175.6,116.6
		z"/>
	<g>
		<path class="st3" d="M175.6,100.1l-1.3-7.6l-13.1,1.5l0.8,8.7c0,0,1,10.8,8,9.5C177.5,110.9,175.9,100,175.6,100.1z"/>
	</g>
	<path class="st9" d="M178.6,99.1c-0.2-0.9,0.1-2.3,0.6-3.1c2.3-3.7-1.2-4.8-2.3-5.1c-1.3-0.4-1.7-2.4-3.5-3.1
		c-2.7-1-4.2,1.4-5.7,1.6c-1.5,0.2-2.9-1.4-4.6,0.2c-1.7,1.6-1,3.1-1.4,4c-0.4,0.9-2.2-0.6-3.5,2.1c-1,2.1,0.1,3.3,1.4,4
		c1.5,0.8,3.4,0.8,5,0.1c1.4-0.6,3.3-1.6,5.2-3.2c0.5-0.4,4.5-0.7,4.8-0.1c1.1,1.9,1.2,8.3,1.2,8.3l1.2-1.6
		C177,103.3,179.1,101.9,178.6,99.1z"/>
	<ellipse transform="matrix(0.359 -0.9333 0.9333 0.359 17.7106 228.8073)" class="st3" cx="175.4" cy="101.5" rx="1.8" ry="1.2"/>
</g>
<path class="st3" d="M262.4,54.3l-11.5,30.8l2.4,0.9c0,0,9-13.8,18-29.7C279.7,41.4,262.4,54.3,262.4,54.3z"/>
<path class="st6" d="M262.4,54.3c0,0,5.9-13.7,13.8-13.7c7.9,0-0.7,1,9.4,0c6.9-0.7,13,11.3,13,11.3l-7.7,4.1l-0.8,18.6h-18.6
	l-1.1-18L262.4,54.3z"/>
<path class="st2" d="M276.2,35.1v5.5l0,0c2.2,1.6,5.2,1.7,7.5,0.2l0.4-0.2l-1.2-6.4L276.2,35.1z"/>
<path class="st3" d="M272.5,23.6c0,0-0.5,12.4,6.7,12.4c7.1,0,7.1-13.6,7.1-13.6l-6.2-6.2L272.5,23.6z"/>
<path class="st9" d="M281,19.6c0,0-2.6,4.3-5.5,6.2c-1.4,0.9-2.1,2.5-1.8,4.2c0.4,2.1,2.9,3.8,2.6,5.8c-0.5,3.2,1,6.4,2.8,9
	c5.4,8.1,0.3,21.4-7.3,21.4c-8.6,0-7.5-10.1-6.8-11.9c0.7-2,0.2-4.2-1.4-5.6c-1.1-1-2.2-2.3-2.2-3.8c0-1.7,1.5-4.7,3-7
	c1.5-2.4,3.1-7.3,3.4-10.1c1.5-14.1,11.5-14.2,11.9-14.1c4.9,0.4,9.4,4.6,9.4,9.6c0.1,5.7,1.9,17.5,3.4,19.7
	c-5.1,2.2-11.7-1.4-9.8-9.5c0.4-1.6,3.5-6,3.3-7.4C285.5,20.5,281,19.6,281,19.6z"/>
<g>
	<path class="st3" d="M295.8,167.9l1.3,3.3c0.3,0.9,0.9,1.7,1.7,2.2c0.9,0.6,2.3,1.3,4.4,1.9c-2.6,2.2-6.6,0-9-1.6
		c-1.1-0.8-1.9-2-2.3-3.3l-0.5-2.5H295.8z"/>
</g>
<path class="st5" d="M291.7,169.7c0,0-1.7,1.4-1.4,3.1c0.3,1.7,0.8,5.8,0.8,5.8h1.8l-0.1-3.8c0-0.2,3.8,3.8,4.5,3.8h9.4
	c0,0,0.6-2.6-4.9-3.4C296.2,174.4,291.7,169.7,291.7,169.7z"/>
<path class="st3" d="M281.8,22.8c-0.9,0.6-1.9,1.2-2.9,1.6c-0.9,1.4-2,2.5-3.3,3.5c0.6,1.9,0.9,3.9,0.8,5.9c0,0.4-0.1,0.9-0.1,1.3
	c0.8,0.6,1.8,0.9,2.9,0.9c4.9,0,6.4-6.4,6.9-10.4C284.5,25,283,24,281.8,22.8z"/>
<path class="st3" d="M284.5,28.1c-0.5-0.5-0.4-1.5,0.2-2.2c0.6-0.7,1.5-0.8,2-0.3c0.5,0.5,0.4,1.5-0.2,2.2
	C285.9,28.5,285,28.6,284.5,28.1z"/>
<path class="st14" d="M294.4,125.4c6.9-35.6-4.3-50.7-4.3-50.7h-8.5h-1.7h-8.5c0,0-10,14.5-4.3,50.7c0,0-3.4,16.6-1.4,42.5
	c2.3,0,4.4,0,4.4,0l5.3-38.1l5.3-34.4l5.3,34.4l5.3,38.1c0,0,2.1,0,4.4,0C297.8,142,294.4,125.4,294.4,125.4z"/>
<path class="st3" d="M298.6,51.9c0,0,9.3,17.7,5.4,20.2c-3.9,2.5-19.3-6.8-19.3-6.8l0.8-2.5l8.5,0.3l-3.2-7.1L298.6,51.9z"/>
<path class="st5" d="M265.6,170.1l-1,5.5c-0.3,1.6,0,3.2,0.8,4.6c0.8,1.3,1.8,2.6,2.8,2.6c1.1,0,2.3-1.4,3.2-2.6
	c0.7-1,0.9-2.2,0.7-3.3l-1.6-7.2L265.6,170.1z"/>
<g>
	<path class="st2" d="M303.6,66.9c-6.2-4-17.4-3.2-17.5-3.2l0-0.7c0.5,0,11.5-0.7,17.9,3.3L303.6,66.9z"/>
</g>
<g>
	<path class="st3" d="M252.5,87.6c-0.3,0.2-1.1,0.8-2,2.7c-0.8,1.8-1.3,5.9-2.9,4.5c-0.4-2.1-1.1-4.5-1.1-4.5c-0.1-1.3,1.1-3.1,2-4
		l3.4-2.6c0,0,2.1,0.4,2.2,0.4l0.3,0.4C253.6,85.3,252.9,86.7,252.5,87.6z"/>
	<path class="st3" d="M251.4,88c0,0-0.1,0-0.3,0.1c0-0.3-0.1-0.5-0.1-0.8c0.3-1,0.6-1.9,0.9-2.9c0.6,0.3,1.4,0.6,1.4,0.6l-0.5,6.7
		c0,0-0.9,0.3-1.2-1.1C251.2,89.2,251.4,88,251.4,88z"/>
</g>
<path class="st3" d="M265.8,167.9l-0.6,7.3c-0.1,0.8,0.4,1.7,1.1,2c0.5,0.2,1.1,0.4,1.9,0.4c0.8,0,1.4-0.2,1.8-0.4
	c0.8-0.4,1.2-1.3,1.1-2.1l-1-7.2H265.8z"/>
<path class="st13" d="M282.4,61.9l-0.8-11.3c0-0.5-0.4-0.9-0.9-0.9h-5.4c-0.5,0-1,0.5-0.9,1l0.9,11.3c0,0.5,0.4,0.9,0.9,0.9h5.3
	C282,62.9,282.4,62.5,282.4,61.9z"/>
<g>
	<path class="st3" d="M284.1,61.5c-0.3,0-1.4-0.2-3.2-1.7c-1.6-1.3-3.9-5-4.9-2.9c0.6,2.2,1,4.8,1,4.8c0.5,1.3,2.4,2.4,3.8,2.9
		l4.4,0.9c0,0,1.8-1.4,1.9-1.4l-0.3-0.9C285.8,62.8,284.9,62.2,284.1,61.5z"/>
	<path class="st3" d="M282.9,61.7c0,0-0.1,0-0.3,0c0.1,0.3,0.2,0.5,0.3,0.8c0.7,0.8,1.4,1.6,2.1,2.3c0.4-0.5,1-1.2,1-1.3l-3.6-6.1
		c0,0-0.9,0.2-0.6,1.6C282.1,60.7,282.9,61.7,282.9,61.7z"/>
</g>
<linearGradient id="SVGID_3_" gradientUnits="userSpaceOnUse" x1="277.0312" y1="53.6512" x2="278.7268" y2="53.6512">
	<stop  offset="0" style="stop-color:#E0F0EB"/>
	<stop  offset="1" style="stop-color:#C0E4EF"/>
</linearGradient>
<circle class="st15" cx="277.9" cy="53.7" r="0.8"/>
<g>
	<path class="st5" d="M413.9,190.5l14.5-2.2c2-0.1,4.2,0.1,4.8,1.8c0,0,0.4,1.1,0.5,2.2c-0.4,0.7-19.8,2.9-19.8,2.9l-0.1-0.1
		C411.4,193,413.9,190.5,413.9,190.5z"/>
	<polygon class="st13" points="433.8,192.2 414,195.2 414.2,195.9 433.9,192.9 	"/>
	<g>
		<polygon class="st13" points="419.6,189.6 420.9,189.4 420.8,191.3 419.5,191.5 		"/>
	</g>
	<g>
		<polygon class="st13" points="422.4,189.2 423.7,189 423.6,190.9 422.3,191.1 		"/>
	</g>
	<path class="st3" d="M412.1,185.8l1.7,4.7l0,0c1.3,0.4,2.8,0.2,3.9-0.5l0.2-0.1l0-4.9L412.1,185.8z"/>
</g>
<g>
	<path class="st5" d="M460,182.9l2.7-14.5c0.6-1.9,1.5-3.9,3.3-4c0,0,1.2,0,2.2,0.2c0.5,0.6-3.8,19.7-3.8,19.7l-0.1,0.1
		C461.5,186,460,182.9,460,182.9z"/>
	<polygon class="st13" points="468.3,164.7 464.4,184.4 465.2,184.3 469,164.8 	"/>
	<g>
		<polygon class="st13" points="461.1,177.2 461.4,175.9 463.1,176.6 462.8,177.9 		"/>
	</g>
	<g>
		<polygon class="st13" points="461.6,174.4 461.9,173.1 463.6,173.8 463.4,175.1 		"/>
	</g>
	<path class="st3" d="M455,183l5-0.1l0,0c0.8-1,1.1-2.5,0.8-3.9l-0.1-0.2l-4.7-1.6L455,183z"/>
</g>
<path class="st14" d="M370.6,175.8c0,0,15.8,5.4,39,3.9c3.8-0.2,7.7,0.3,11.3,1.6c14.1,4.9,34.9,2.3,34.9,2.3l1.5-6.5l-69.5-18.1
	L370.6,175.8z"/>
<g>
	<polygon class="st2" points="362.3,104.2 359.5,111 365.2,112.7 367.4,107.2 	"/>
	<path class="st3" d="M363.1,92.3l-1.7,9.1c0.9,0.2,1.2,1.3,0.8,2.1c0,0.2,0,0.5,0,0.7c1.3,1.5,3.8,3.6,7.6,3.8
		c6,0.3,5.2-11.6,5.2-11.6L363.1,92.3z"/>
	<path class="st9" d="M358.5,98.4c0.1-0.7-0.4-2.3-0.8-2.8c-2.6-3.6,0.8-4.9,2-5.3c1.3-0.5,1.6-2.6,3.3-3.4c2.7-1.2,4.4,1.1,5.9,1.2
		c1.5,0.1,2.9-1.6,4.7-0.1c1.8,1.5,1.2,3.1,1.7,4c0.5,0.9,2.2-0.8,3.7,1.9c2.3,4.1-4.1,4-4.1,4s-3.7,0.6-7.6-2.2
		c-0.5-0.4-1.3-0.4-1.8,0c-1.4,1.2-3.2,8.7-3.2,8.7l-1.2-1.6C361.1,102.8,358,101.5,358.5,98.4z"/>
	<ellipse transform="matrix(0.9887 -0.1502 0.1502 0.9887 -10.8658 55.6857)" class="st3" cx="363.2" cy="99.8" rx="1.4" ry="1.4"/>
</g>
<path class="st10" d="M347.5,155.8c0,0,1.6,18.6,18.5,20c16.9,1.4,37.5-17.1,37.5-17.1l8.2,28.2l6.5-1c0,0,3-41.6-6-44.2
	c-9-2.6-43.3,10.8-43.3,10.8L347.5,155.8z"/>
<path class="st9" d="M347.5,155.8l27.7-4.2c0,0-1.9-6.1-2.2-12.4c-0.3-4.8,1.5-9.1,1.5-9.1c-1.5-10.6-5.4-20.9-14.7-19.8
	C343.8,114.2,347.5,155.8,347.5,155.8z"/>
<linearGradient id="SVGID_4_" gradientUnits="userSpaceOnUse" x1="390.714" y1="129.7787" x2="426.8875" y2="129.7787">
	<stop  offset="0" style="stop-color:#E0F0EB"/>
	<stop  offset="1" style="stop-color:#C0E4EF"/>
</linearGradient>
<polygon class="st16" points="425.1,116.4 415.4,141 390.9,138.1 390.7,140 416.7,143.1 426.9,117.2 "/>
<path class="st3" d="M363.6,131.6l11-1.7l1.2,12.3l19.3-6.1l4.3-2.8c1.1-0.7,2.4-1,3.8-0.8l5.3,0.8c0.5,0.1,1,0.5,1.1,1.1l1.9,5.7
	c0,0-1.3,0.9-3.3-3.8c-1,5.6-9,1.9-9,1.9l-2.7,1.9c0,0-20.7,15.3-25.9,12.5C365.3,149.5,363.6,131.6,363.6,131.6z"/>
<path class="st3" d="M409.4,134.2c-0.1-0.5-0.5-1-1.1-1.1l-5.3-0.8c-1.3-0.2-2.7,0.1-3.8,0.8l-4.3,2.8l-0.6,0.2l0.7,4.5
	c0.8-0.6,1.3-1,1.3-1l2.7-1.9c0,0,8,3.7,9-1.9c2,4.8,3.3,3.8,3.3,3.8L409.4,134.2z"/>
<path class="st6" d="M50.3,34.2c0,0,2.9-4.4,3.9-5.5c3.6-3.8-3.2-22.1,1.2-25c4.4-2.9,36.4-6.6,39.9,0c3.5,6.6,5.3,26.9-1.2,29.8
	c-6.5,2.8-32.1,0.8-34.9-0.1C54.4,31.8,50.3,34.2,50.3,34.2z"/>
<path class="st13" d="M65.4,17.9c0,0,8.6-3.3,8.7-10.5c1.1-4.6,3.1-1.8,3.1-1.8s1.8,5,0,8.7c3.2,0.6,5.3,0.3,7.6,1.3
	c2.3,1,1.7,7.2-2.3,12.3c-2.8,3.6-16.4-0.4-16.4-0.4L65.4,17.9z"/>
<g>
	<circle class="st17" cx="416.2" cy="82.1" r="15.5"/>
	<path class="st13" d="M408.5,84.4h16.6c0,0-1.7,8.1-8.4,8.1S408.5,84.4,408.5,84.4z"/>
	<path class="st13" d="M423.8,78.1c0-0.1,0.1-0.3,0.1-0.4c0-0.8-0.6-1.4-1.4-1.4s-1.4,0.6-1.4,1.4c0,0.1,0,0.3,0.1,0.4H423.8z"/>
	<path class="st13" d="M412.5,78.1c0-0.1,0.1-0.3,0.1-0.4c0-0.8-0.6-1.4-1.4-1.4s-1.4,0.6-1.4,1.4c0,0.1,0,0.3,0.1,0.4H412.5z"/>
</g>
</svg>