<!-- Generator: Adobe Illustrator 21.0.2, SVG Export Plug-In  -->
<svg version="1.1"
	 xmlns="http://www.w3.org/2000/svg" xmlns:xlink="http://www.w3.org/1999/xlink" xmlns:a="http://ns.adobe.com/AdobeSVGViewerExtensions/3.0/"
	 x="0px" y="0px" width="223.3px" height="223.3px" viewBox="0 0 223.3 223.3" style="enable-background:new 0 0 223.3 223.3;"
	 xml:space="preserve">
<style type="text/css">
	.st0{clip-path:url(#SVGID_2_);fill:#4152f3;}
	.st1{clip-path:url(#SVGID_4_);fill:#4152f3;}
</style>
<defs>
</defs>
<g>
	<defs>
		
			<rect id="SVGID_1_" x="0.6" y="0.6" transform="matrix(5.231243e-03 -1 1 5.231243e-03 -0.5796 222.7225)" width="222.1" height="222.2"/>
	</defs>
	<clipPath id="SVGID_2_">
		<use xlink:href="#SVGID_1_"  style="overflow:visible;"/>
	</clipPath>
	<path class="st0" d="M112.2,0.6C98.8,0.5,86,2.8,74,7.1l76.3,0.4C138.5,3.1,125.6,0.7,112.2,0.6"/>
	<path class="st0" d="M165.2,14.3L59.1,13.8c-3.8,2-7.4,4.3-10.9,6.7L176,21.1C172.6,18.7,169,16.4,165.2,14.3"/>
	<path class="st0" d="M184.6,27.9l-145-0.8c-2.5,2.1-4.9,4.4-7.2,6.7l159.3,0.8C189.4,32.3,187.1,30,184.6,27.9"/>
	<path class="st0" d="M197.7,41.4L26.3,40.5c-1.8,2.2-3.5,4.4-5.2,6.7l181.7,1C201.2,45.9,199.5,43.6,197.7,41.4"/>
	<path class="st0" d="M207.2,54.9l-190.4-1c-1.3,2.2-2.6,4.4-3.8,6.7l197.9,1C209.7,59.4,208.5,57.1,207.2,54.9"/>
	<path class="st0" d="M214,68.4L9.8,67.4c-1,2.2-1.9,4.4-2.7,6.7l209.5,1.1C215.8,72.9,214.9,70.6,214,68.4"/>
	<path class="st0" d="M218.7,81.9L4.9,80.8c-0.6,2.2-1.2,4.5-1.7,6.7l217.1,1.1C219.9,86.4,219.3,84.1,218.7,81.9"/>
	<path class="st0" d="M221.5,95.4L1.9,94.2c-0.4,2.2-0.6,4.5-0.8,6.7l221.2,1.2C222.1,99.9,221.9,97.6,221.5,95.4"/>
	<path class="st0" d="M222.7,108.9l-222-1.2c0,1.1-0.1,2.2-0.1,3.4c0,1.1,0,2.3,0,3.4l222,1.2c0-1.1,0.1-2.2,0.1-3.4
		C222.7,111.1,222.7,110,222.7,108.9"/>
	<path class="st0" d="M1.8,127.9l219.6,1.1c0.4-2.2,0.6-4.5,0.8-6.7L1,121.2C1.2,123.4,1.4,125.7,1.8,127.9"/>
	<path class="st0" d="M4.6,141.4l213.8,1.1c0.6-2.2,1.2-4.5,1.7-6.7L3,134.6C3.4,136.9,4,139.2,4.6,141.4"/>
	<path class="st0" d="M9.3,154.9l204.2,1.1c1-2.2,1.9-4.4,2.7-6.7L6.7,148.1C7.5,150.4,8.4,152.7,9.3,154.9"/>
	<path class="st0" d="M16.1,168.4l190.4,1c1.3-2.2,2.6-4.4,3.8-6.7l-197.9-1C13.6,163.9,14.8,166.2,16.1,168.4"/>
	<path class="st0" d="M25.6,181.9l171.4,0.9c1.8-2.2,3.5-4.4,5.2-6.7l-181.7-1C22.1,177.4,23.8,179.7,25.6,181.9"/>
	<path class="st0" d="M38.7,195.4l145,0.8c2.5-2.1,4.9-4.4,7.2-6.7l-159.3-0.8C33.9,191,36.2,193.3,38.7,195.4"/>
	<path class="st0" d="M58.1,209l106.1,0.6c3.8-2,7.4-4.3,10.9-6.7l-127.8-0.7C50.8,204.7,54.4,206.9,58.1,209"/>
	<path class="st0" d="M111.1,222.7c13.4,0.1,26.3-2.2,38.2-6.5l-76.3-0.4C84.8,220.2,97.7,222.7,111.1,222.7"/>
</g>
</svg>